<svg xmlns="http://www.w3.org/2000/svg" viewBox="0 0 574.52 335.94"><path d="M171.72,68.13a16.23,16.23,0,0,1,9.49,4.11,15.6,15.6,0,0,1,2.52,3.14,16.81,16.81,0,0,1,1.94,4.9c.05.22.09.4.11.51a57.48,57.48,0,0,1,.32,7c.07,2.73.11,5,.14,6.77.09,5.31.47,6.26.27,9.44a35,35,0,0,1-.54,4.56,29.88,29.88,0,0,1-2.61,8,25.83,25.83,0,0,1-8.34,9.32,27,27,0,0,1-17.93,4.32,28.55,28.55,0,0,1-16.11-8,27.22,27.22,0,0,1-5.31-7.74,29,29,0,0,1-2.26-8.84,26.64,26.64,0,0,1,2.44-14.13,28.25,28.25,0,0,1,7.88-10l0,13.82,0,9.35a13.54,13.54,0,0,0,.57,3.11,14.14,14.14,0,0,0,.71,1.88,13,13,0,0,0,3.16,4,13.15,13.15,0,0,0,3.51,2.18,12.79,12.79,0,0,0,12.19-1.35,13.85,13.85,0,0,0,5.4-9.18q0-12.26,0-24.53c0-3.82,0-6.75.06-12.58,0-6.74,0-15.16,0-24.91a12.73,12.73,0,0,1,8-13.41,12.43,12.43,0,0,1,13.77,3.62,13,13,0,0,1,2.56,10.2q9.54,9.52,19.07,19.07a36.64,36.64,0,0,0,4-7.36,38.77,38.77,0,0,0,1.6-23.29A37.73,37.73,0,0,0,212.18,19a39.48,39.48,0,0,0-19.94-14.1,38.43,38.43,0,0,0-28.36,2.88,41.85,41.85,0,0,0-6.22,4.17,40.4,40.4,0,0,0-8.26,9.49,40,40,0,0,0-2.4,4.54c-.15.34-.75,1.71-1.39,3.6a52.56,52.56,0,0,0-1.68,6.94,15.43,15.43,0,0,0-.19,1.74c0,.38,0,.68,0,.87v4.46c0,1.3,0,2.25,0,2.46,0,2.33,0,5.4,0,9V81.16c-.44.33-.95.74-1.5,1.22-.2.17-.71.62-1.34,1.25a27.21,27.21,0,0,0-1.86,2,25.77,25.77,0,0,0-1.58,2.07,23.69,23.69,0,0,0-1.3,2c-.47.8-.8,1.43-.92,1.68,0,.07-.26.51-.48,1a33,33,0,0,0-1.4,3.72c-.49,1.6-.73,2.86-.8,3.19a30.32,30.32,0,0,0-.46,3.68,28.56,28.56,0,0,0,0,3.87,28.63,28.63,0,0,0,2.46,10,31,31,0,0,0,15.74,15.84,30.74,30.74,0,0,0,10,2.54,31.4,31.4,0,0,0,9.74-.79A32.06,32.06,0,0,0,190,119.68a30.74,30.74,0,0,0,3.44-8.24,29.73,29.73,0,0,0,.83-7.24c.05-5.87.1-13.11.07-21.55a15.89,15.89,0,0,1,14.47-14.57L190.37,49.63Z" transform="translate(-2.19 79.23)" style="fill:#231f20"/><text transform="translate(0 214.51)" style="font-size:297.1351318359375px;fill:#231f20;font-family:Microsoft-Himalaya, Microsoft Himalaya;letter-spacing:-0.024902521680221813em">Y</text><text transform="translate(210.61 214.55)" style="font-size:296.4588623046875px;fill:#231f20;font-family:Microsoft-Himalaya, Microsoft Himalaya">LEZ</text></svg>