<svg xmlns="http://www.w3.org/2000/svg" viewBox="0 0 469.49 708.77"><path d="M338.42,353.16a86.92,86.92,0,0,1,51,22A84.71,84.71,0,0,1,402.9,392.1a88.9,88.9,0,0,1,10.44,26.27c.27,1.23.46,2.15.57,2.78.87,4.93,1.18,11.9,1.77,37.52.33,14.67.56,27.08.71,36.35.49,28.51,2.52,33.64,1.44,50.73A186.53,186.53,0,0,1,415,570.22c-1.35,7.15-4.83,25-14,43a138.63,138.63,0,0,1-44.8,50c-42,28.51-86.11,24.41-96.26,23.21-5.79-.68-50.69-6.64-86.54-43.18a145.56,145.56,0,0,1-28.52-41.56,154,154,0,0,1-12.14-47.5,152.28,152.28,0,0,1-.39-24.64,148.58,148.58,0,0,1,13.47-51.26,151.77,151.77,0,0,1,42.36-53.84l-.2,74.23.2,50.2a75.35,75.35,0,0,0,3,16.74A72.09,72.09,0,0,0,195,575.69a69,69,0,0,0,16.94,21.59A70.77,70.77,0,0,0,230.81,609a68.64,68.64,0,0,0,65.44-7.29C320,585,324.47,558,325.27,552.48q-.22-65.89,0-131.77c.06-20.5.21-36.25.33-67.55.15-36.22.21-81.43,0-133.79C322,187.77,340,158,368.45,147.32c26-9.74,56.33-1.83,73.94,19.43,18.88,22.79,14.52,50.48,13.77,54.79L558.58,324a193.56,193.56,0,0,0,21.72-39.54,203.63,203.63,0,0,0,13.77-59.37,206.36,206.36,0,0,0-5.13-65.72A204.25,204.25,0,0,0,555.74,89C515.18,33.76,458.33,16.18,448.6,13.32,383.52-5.79,325.77,13,296.29,28.78a225.42,225.42,0,0,0-33.37,22.39,215.72,215.72,0,0,0-44.37,51,212.3,212.3,0,0,0-12.88,24.36c-.82,1.84-4.07,9.2-7.47,19.36a278.71,278.71,0,0,0-9,37.27,70.42,70.42,0,0,0-1,9.37c-.09,2-.08,3.63,0,4.66,0,1.36,0,2.71,0,4.07q0,5.66,0,11.3c0,2.42,0,5.39,0,8.55,0,7,0,12.1,0,13.26,0,12.47,0,29,.06,48.26,0,6.33,0,15.7,0,27.19V423.14c-2.36,1.78-5.1,3.95-8.07,6.53-1.07.93-3.81,3.34-7.2,6.69-5.07,5-8.64,9.19-10,10.8s-4.71,5.69-8.5,11.13c-1,1.41-3.77,5.45-7,10.95-2.52,4.3-4.26,7.69-4.95,9.06-.17.33-1.35,2.69-2.54,5.29a167.2,167.2,0,0,0-7.51,20,169.47,169.47,0,0,0-4.3,17.14,158.05,158.05,0,0,0-2.5,19.8,164.78,164.78,0,0,0,3.71,45.92,163.78,163.78,0,0,0,9.58,28.4,166.31,166.31,0,0,0,84.55,85.08,164.84,164.84,0,0,0,54,13.63,167.64,167.64,0,0,0,52.29-4.25,171.66,171.66,0,0,0,59.51-27.46A173.92,173.92,0,0,0,436.66,630a165.47,165.47,0,0,0,18.49-44.26,160.72,160.72,0,0,0,4.45-38.86c.26-31.52.52-70.41.34-115.74a86.65,86.65,0,0,1,22.85-51.63c21.44-22.85,48.24-26,54.87-26.63l-99.09-99.09Z" transform="translate(-125.25 -5.26)" style="fill:#231f20"/></svg>