<svg xmlns="http://www.w3.org/2000/svg" viewBox="0 0 253.68 384.44">
    <path d="M115.18,188.7a47,47,0,0,1,27.55,12,45.79,45.79,0,0,1,7.29,9.18,48.25,48.25,0,0,1,5.64,14.24c.15.67.25,1.17.31,1.51.47,2.68.64,6.46.95,20.35.18,8,.31,14.69.39,19.72.26,15.47,1.36,18.24.78,27.52a101.93,101.93,0,0,1-1.56,13.27A86.61,86.61,0,0,1,149,329.76a75,75,0,0,1-24.21,27.13c-22.69,15.47-46.53,13.24-52,12.59A82.46,82.46,0,0,1,26,346.06a79.15,79.15,0,0,1-15.41-22.54,85.8,85.8,0,0,1-6.77-39.13,80.74,80.74,0,0,1,7.28-27.8A82.17,82.17,0,0,1,34,227.38l-.11,40.27L34,294.88A40.68,40.68,0,0,0,35.6,304a39,39,0,0,0,2.07,5.45,37.37,37.37,0,0,0,9.16,11.71A38,38,0,0,0,57,327.48a36.95,36.95,0,0,0,35.37-4c12.84-9.09,15.24-23.72,15.67-26.72q-.12-35.73,0-71.47c0-11.12.12-19.66.18-36.64.08-19.64.12-44.16,0-72.56C106.29,99,116,82.83,131.4,77.06a35.93,35.93,0,0,1,40,10.54c10.2,12.35,7.84,27.38,7.44,29.71l55.34,55.56a105.65,105.65,0,0,0,11.74-21.45,109.76,109.76,0,0,0-13.27-106c-21.92-30-52.64-39.51-57.9-41.06C139.55-6,108.35,4.21,92.41,12.76a120.6,120.6,0,0,0-18,12.15A112.64,112.64,0,0,0,43.45,65.77c-.44,1-2.2,5-4,10.51a153.08,153.08,0,0,0-4.87,20.21,38.23,38.23,0,0,0-.56,5.08c0,1.09,0,2,0,2.53v2.21l0,6.13v4.63c0,3.79,0,6.57,0,7.19,0,6.77,0,15.73,0,26.18,0,3.44,0,8.52,0,14.75v61.47c-1.27,1-2.75,2.14-4.36,3.54-.58.51-2.06,1.82-3.89,3.63-2.74,2.72-4.67,5-5.4,5.86s-2.54,3.09-4.59,6c-.53.76-2,3-3.77,5.93-1.36,2.34-2.3,4.18-2.67,4.92-.1.18-.74,1.46-1.38,2.87a92.66,92.66,0,0,0-6.38,20.13A85.58,85.58,0,0,0,.16,290.32a85,85,0,0,0,7.18,40.31,90.59,90.59,0,0,0,8.72,15.55,89,89,0,0,0,94.38,35.68A92.43,92.43,0,0,0,142.6,367a94.26,94.26,0,0,0,25.66-28.11,89.52,89.52,0,0,0,10-24,87.66,87.66,0,0,0,2.41-21.08c.14-17.1.28-38.19.18-62.78a46.24,46.24,0,0,1,42-42.45L169.29,134.8Z" style="fill:#fff" />
</svg>